<mxfile host="app.diagrams.net" modified="2021-07-08T00:37:27.021Z" agent="5.0 (Macintosh; Intel Mac OS X 10_15_7) AppleWebKit/537.36 (KHTML, like Gecko) Chrome/91.0.4472.114 Safari/537.36" etag="WtnmbYdqwnlOwSCKI488" version="13.10.8" type="github">
  <diagram id="ZyhjTSg-SiuIm7kDKO3g" name="Page-1">
    <mxGraphModel dx="1115" dy="465" grid="1" gridSize="10" guides="1" tooltips="1" connect="1" arrows="1" fold="1" page="1" pageScale="1" pageWidth="827" pageHeight="1169" math="0" shadow="0">
      <root>
        <mxCell id="0" />
        <mxCell id="1" parent="0" />
        <mxCell id="bk9u-JqCocwXnOTqOy1z-38" style="edgeStyle=orthogonalEdgeStyle;rounded=0;orthogonalLoop=1;jettySize=auto;html=1;exitX=0.5;exitY=0;exitDx=0;exitDy=0;entryX=0;entryY=0.643;entryDx=0;entryDy=0;dashed=1;entryPerimeter=0;" edge="1" parent="1" source="bk9u-JqCocwXnOTqOy1z-48" target="bk9u-JqCocwXnOTqOy1z-52">
          <mxGeometry relative="1" as="geometry">
            <mxPoint x="144" y="160" as="sourcePoint" />
            <mxPoint x="214" y="95" as="targetPoint" />
            <Array as="points">
              <mxPoint x="144" y="200" />
              <mxPoint x="144" y="95" />
            </Array>
          </mxGeometry>
        </mxCell>
        <mxCell id="bk9u-JqCocwXnOTqOy1z-39" style="edgeStyle=orthogonalEdgeStyle;rounded=0;orthogonalLoop=1;jettySize=auto;html=1;exitX=0.5;exitY=0;exitDx=0;exitDy=0;entryX=0;entryY=0.75;entryDx=0;entryDy=0;dashed=1;" edge="1" parent="1" source="bk9u-JqCocwXnOTqOy1z-55" target="bk9u-JqCocwXnOTqOy1z-52">
          <mxGeometry relative="1" as="geometry">
            <mxPoint x="154" y="230" as="sourcePoint" />
            <mxPoint x="224" y="125.00999999999999" as="targetPoint" />
            <Array as="points">
              <mxPoint x="154" y="260" />
              <mxPoint x="154" y="103" />
            </Array>
          </mxGeometry>
        </mxCell>
        <mxCell id="bk9u-JqCocwXnOTqOy1z-40" style="edgeStyle=orthogonalEdgeStyle;rounded=0;orthogonalLoop=1;jettySize=auto;html=1;exitX=0.25;exitY=0;exitDx=0;exitDy=0;entryX=-0.012;entryY=0.157;entryDx=0;entryDy=0;entryPerimeter=0;dashed=1" edge="1" parent="1" source="bk9u-JqCocwXnOTqOy1z-51" target="bk9u-JqCocwXnOTqOy1z-52">
          <mxGeometry relative="1" as="geometry" />
        </mxCell>
        <mxCell id="bk9u-JqCocwXnOTqOy1z-41" style="edgeStyle=orthogonalEdgeStyle;rounded=0;orthogonalLoop=1;jettySize=auto;html=1;exitX=0;exitY=0.5;exitDx=0;exitDy=0;" edge="1" parent="1" source="bk9u-JqCocwXnOTqOy1z-43">
          <mxGeometry relative="1" as="geometry">
            <mxPoint x="94" y="380" as="targetPoint" />
            <Array as="points">
              <mxPoint x="54" y="165" />
              <mxPoint x="54" y="380" />
            </Array>
          </mxGeometry>
        </mxCell>
        <mxCell id="bk9u-JqCocwXnOTqOy1z-42" style="edgeStyle=orthogonalEdgeStyle;rounded=0;orthogonalLoop=1;jettySize=auto;html=1;exitX=0.5;exitY=0;exitDx=0;exitDy=0;entryX=0;entryY=0.5;entryDx=0;entryDy=0;dashed=1" edge="1" parent="1" source="bk9u-JqCocwXnOTqOy1z-43" target="bk9u-JqCocwXnOTqOy1z-52">
          <mxGeometry relative="1" as="geometry" />
        </mxCell>
        <mxCell id="bk9u-JqCocwXnOTqOy1z-43" value="UPortal" style="rounded=1;whiteSpace=wrap;html=1;" vertex="1" parent="1">
          <mxGeometry x="94" y="150" width="80" height="30" as="geometry" />
        </mxCell>
        <mxCell id="bk9u-JqCocwXnOTqOy1z-44" style="edgeStyle=orthogonalEdgeStyle;rounded=0;orthogonalLoop=1;jettySize=auto;html=1;exitX=0.5;exitY=0;exitDx=0;exitDy=0;entryX=1;entryY=0.5;entryDx=0;entryDy=0;" edge="1" parent="1" source="bk9u-JqCocwXnOTqOy1z-45" target="bk9u-JqCocwXnOTqOy1z-52">
          <mxGeometry relative="1" as="geometry" />
        </mxCell>
        <mxCell id="bk9u-JqCocwXnOTqOy1z-45" value="UOB Paynow System" style="rounded=1;whiteSpace=wrap;html=1;" vertex="1" parent="1">
          <mxGeometry x="480" y="200" width="90" height="30" as="geometry" />
        </mxCell>
        <mxCell id="bk9u-JqCocwXnOTqOy1z-46" value="Paynow Network" style="rounded=1;whiteSpace=wrap;html=1;" vertex="1" parent="1">
          <mxGeometry x="620" y="198" width="80" height="35" as="geometry" />
        </mxCell>
        <mxCell id="bk9u-JqCocwXnOTqOy1z-47" style="edgeStyle=orthogonalEdgeStyle;rounded=0;orthogonalLoop=1;jettySize=auto;html=1;exitX=0;exitY=0.5;exitDx=0;exitDy=0;entryX=0;entryY=0.5;entryDx=0;entryDy=0;" edge="1" parent="1" source="bk9u-JqCocwXnOTqOy1z-48" target="bk9u-JqCocwXnOTqOy1z-53">
          <mxGeometry relative="1" as="geometry">
            <Array as="points">
              <mxPoint x="64" y="215" />
              <mxPoint x="64" y="385" />
            </Array>
          </mxGeometry>
        </mxCell>
        <mxCell id="bk9u-JqCocwXnOTqOy1z-48" value="Kiosk" style="rounded=1;whiteSpace=wrap;html=1;" vertex="1" parent="1">
          <mxGeometry x="94" y="200" width="80" height="30" as="geometry" />
        </mxCell>
        <mxCell id="bk9u-JqCocwXnOTqOy1z-49" style="edgeStyle=orthogonalEdgeStyle;rounded=0;orthogonalLoop=1;jettySize=auto;html=1;exitX=1;exitY=0.5;exitDx=0;exitDy=0;entryX=0;entryY=0.75;entryDx=0;entryDy=0;" edge="1" parent="1" source="bk9u-JqCocwXnOTqOy1z-51" target="bk9u-JqCocwXnOTqOy1z-45">
          <mxGeometry relative="1" as="geometry">
            <Array as="points">
              <mxPoint x="334" y="325" />
              <mxPoint x="334" y="223" />
            </Array>
          </mxGeometry>
        </mxCell>
        <mxCell id="bk9u-JqCocwXnOTqOy1z-50" value="Pay Txn&lt;br&gt;Refund Txn" style="edgeLabel;html=1;align=center;verticalAlign=middle;resizable=0;points=[];" vertex="1" connectable="0" parent="bk9u-JqCocwXnOTqOy1z-49">
          <mxGeometry x="-0.6702" y="-1" relative="1" as="geometry">
            <mxPoint as="offset" />
          </mxGeometry>
        </mxCell>
        <mxCell id="bk9u-JqCocwXnOTqOy1z-51" value="Refund" style="rounded=1;whiteSpace=wrap;html=1;" vertex="1" parent="1">
          <mxGeometry x="94" y="310" width="80" height="30" as="geometry" />
        </mxCell>
        <mxCell id="bk9u-JqCocwXnOTqOy1z-52" value="Paynow Notifications Queue / Listener" style="rounded=1;whiteSpace=wrap;html=1;" vertex="1" parent="1">
          <mxGeometry x="204" y="50" width="80" height="70" as="geometry" />
        </mxCell>
        <mxCell id="bk9u-JqCocwXnOTqOy1z-53" value="QR Code&lt;br&gt;Generator" style="rounded=1;whiteSpace=wrap;html=1;" vertex="1" parent="1">
          <mxGeometry x="94" y="370" width="80" height="30" as="geometry" />
        </mxCell>
        <mxCell id="bk9u-JqCocwXnOTqOy1z-54" style="edgeStyle=orthogonalEdgeStyle;rounded=0;orthogonalLoop=1;jettySize=auto;html=1;exitX=0;exitY=0.5;exitDx=0;exitDy=0;entryX=0;entryY=0.75;entryDx=0;entryDy=0;" edge="1" parent="1" source="bk9u-JqCocwXnOTqOy1z-55" target="bk9u-JqCocwXnOTqOy1z-53">
          <mxGeometry relative="1" as="geometry">
            <Array as="points">
              <mxPoint x="74" y="275" />
              <mxPoint x="74" y="393" />
            </Array>
          </mxGeometry>
        </mxCell>
        <mxCell id="bk9u-JqCocwXnOTqOy1z-55" value="Infinity" style="rounded=1;whiteSpace=wrap;html=1;" vertex="1" parent="1">
          <mxGeometry x="94" y="260" width="80" height="30" as="geometry" />
        </mxCell>
        <mxCell id="bk9u-JqCocwXnOTqOy1z-56" value="" style="endArrow=classic;startArrow=classic;html=1;entryX=0;entryY=0.5;entryDx=0;entryDy=0;exitX=1;exitY=0.5;exitDx=0;exitDy=0;" edge="1" parent="1" source="bk9u-JqCocwXnOTqOy1z-45" target="bk9u-JqCocwXnOTqOy1z-46">
          <mxGeometry width="50" height="50" relative="1" as="geometry">
            <mxPoint x="430" y="320" as="sourcePoint" />
            <mxPoint x="480" y="270" as="targetPoint" />
          </mxGeometry>
        </mxCell>
        <mxCell id="bk9u-JqCocwXnOTqOy1z-57" value="Mulesoft" style="rounded=1;whiteSpace=wrap;html=1;" vertex="1" parent="1">
          <mxGeometry x="348" y="70" width="80" height="30" as="geometry" />
        </mxCell>
        <mxCell id="bk9u-JqCocwXnOTqOy1z-58" value="Customer&#39;s Paynow Mobile Client will scan QR" style="rounded=1;whiteSpace=wrap;html=1;fillColor=#B9E0A5;" vertex="1" parent="1">
          <mxGeometry x="194" y="150" width="80" height="140" as="geometry" />
        </mxCell>
      </root>
    </mxGraphModel>
  </diagram>
</mxfile>
